<svg width="197" height="203" viewBox="0 0 197 203" fill="none" xmlns="http://www.w3.org/2000/svg">
<path d="M159.138 171.626C160.133 172.824 161.913 172.992 163.083 171.964C177.535 159.252 187.951 142.557 193.003 123.941C198.302 104.417 197.443 83.7331 190.542 64.7161C183.642 45.6991 171.038 29.2767 154.452 17.6934C137.866 6.11013 118.108 -0.0689787 97.8784 0.000580583C77.6483 0.0701398 57.9333 6.38497 41.4276 18.0821C24.9219 29.7791 12.4308 46.2878 5.66158 65.3518C-1.10769 84.4158 -1.82491 105.105 3.60792 124.592C8.78804 143.173 19.3184 159.796 33.8582 172.408C35.0345 173.429 36.8141 173.248 37.8003 172.043L45.8325 162.228C46.8187 161.023 46.6375 159.25 45.4679 158.222C33.8453 148.005 25.4234 134.617 21.2569 119.672C16.8375 103.82 17.4209 86.9902 22.9274 71.4826C28.4339 55.9749 38.5947 42.5459 52.0213 33.0309C65.4479 23.5159 81.4852 18.379 97.9414 18.3225C114.398 18.2659 130.47 23.2923 143.962 32.7147C157.453 42.1372 167.706 55.496 173.319 70.9654C178.932 86.4349 179.631 103.26 175.321 119.142C171.257 134.115 162.928 147.561 151.376 157.858C150.213 158.894 150.044 160.668 151.039 161.866L159.138 171.626Z" fill="url(#paint0_linear_921_471)"/>
<path opacity="0.7" d="M73.4656 161.63V181.758H71.8272V163.709L66.3753 165.732V164.177L73.1902 161.63H73.4656ZM100.409 170.014V173.387C100.409 174.856 100.271 176.136 99.9957 177.228C99.7204 178.311 99.3165 179.211 98.7842 179.927C98.261 180.634 97.6185 181.161 96.8567 181.51C96.1041 181.859 95.2413 182.033 94.2684 182.033C93.4974 182.033 92.7907 181.923 92.1482 181.703C91.5057 181.483 90.9321 181.148 90.4273 180.698C89.9316 180.239 89.5094 179.665 89.1606 178.977C88.8119 178.289 88.5457 177.481 88.3621 176.554C88.1785 175.618 88.0868 174.562 88.0868 173.387V170.014C88.0868 168.536 88.2244 167.261 88.4998 166.187C88.7843 165.113 89.1882 164.223 89.7113 163.516C90.2437 162.809 90.8908 162.286 91.6526 161.946C92.4144 161.598 93.2771 161.423 94.2409 161.423C95.0119 161.423 95.7186 161.538 96.3611 161.767C97.0127 161.988 97.5864 162.318 98.082 162.759C98.5868 163.199 99.009 163.764 99.3486 164.452C99.6974 165.131 99.959 165.934 100.133 166.861C100.317 167.788 100.409 168.839 100.409 170.014ZM98.7704 173.58V169.808C98.7704 168.899 98.7062 168.073 98.5777 167.33C98.4583 166.586 98.2794 165.934 98.0407 165.375C97.8021 164.815 97.4992 164.347 97.1321 163.97C96.7741 163.594 96.3519 163.314 95.8654 163.13C95.3882 162.938 94.8466 162.841 94.2409 162.841C93.4974 162.841 92.8412 162.993 92.2721 163.296C91.7122 163.589 91.2441 164.03 90.8678 164.617C90.4915 165.196 90.207 165.921 90.0142 166.793C89.8307 167.665 89.7389 168.67 89.7389 169.808V173.58C89.7389 174.479 89.7985 175.301 89.9179 176.044C90.0372 176.779 90.2207 177.43 90.4686 177.999C90.7164 178.568 91.0193 179.05 91.3772 179.445C91.7443 179.83 92.1666 180.124 92.6438 180.326C93.1303 180.519 93.6718 180.615 94.2684 180.615C95.0302 180.615 95.6911 180.464 96.2509 180.161C96.8108 179.849 97.2789 179.394 97.6552 178.798C98.0315 178.192 98.3115 177.453 98.4951 176.581C98.6786 175.7 98.7704 174.7 98.7704 173.58ZM116.049 170.014V173.387C116.049 174.856 115.911 176.136 115.636 177.228C115.36 178.311 114.956 179.211 114.424 179.927C113.901 180.634 113.258 181.161 112.497 181.51C111.744 181.859 110.881 182.033 109.908 182.033C109.137 182.033 108.431 181.923 107.788 181.703C107.146 181.483 106.572 181.148 106.067 180.698C105.572 180.239 105.149 179.665 104.801 178.977C104.452 178.289 104.186 177.481 104.002 176.554C103.819 175.618 103.727 174.562 103.727 173.387V170.014C103.727 168.536 103.864 167.261 104.14 166.187C104.424 165.113 104.828 164.223 105.351 163.516C105.884 162.809 106.531 162.286 107.293 161.946C108.054 161.598 108.917 161.423 109.881 161.423C110.652 161.423 111.359 161.538 112.001 161.767C112.653 161.988 113.226 162.318 113.722 162.759C114.227 163.199 114.649 163.764 114.989 164.452C115.337 165.131 115.599 165.934 115.773 166.861C115.957 167.788 116.049 168.839 116.049 170.014ZM114.41 173.58V169.808C114.41 168.899 114.346 168.073 114.218 167.33C114.098 166.586 113.919 165.934 113.681 165.375C113.442 164.815 113.139 164.347 112.772 163.97C112.414 163.594 111.992 163.314 111.505 163.13C111.028 162.938 110.487 162.841 109.881 162.841C109.137 162.841 108.481 162.993 107.912 163.296C107.352 163.589 106.884 164.03 106.508 164.617C106.131 165.196 105.847 165.921 105.654 166.793C105.471 167.665 105.379 168.67 105.379 169.808V173.58C105.379 174.479 105.439 175.301 105.558 176.044C105.677 176.779 105.861 177.43 106.109 177.999C106.356 178.568 106.659 179.05 107.017 179.445C107.384 179.83 107.807 180.124 108.284 180.326C108.77 180.519 109.312 180.615 109.908 180.615C110.67 180.615 111.331 180.464 111.891 180.161C112.451 179.849 112.919 179.394 113.295 178.798C113.672 178.192 113.951 177.453 114.135 176.581C114.319 175.7 114.41 174.7 114.41 173.58ZM131.689 170.014V173.387C131.689 174.856 131.551 176.136 131.276 177.228C131 178.311 130.596 179.211 130.064 179.927C129.541 180.634 128.898 181.161 128.137 181.51C127.384 181.859 126.521 182.033 125.548 182.033C124.777 182.033 124.071 181.923 123.428 181.703C122.786 181.483 122.212 181.148 121.707 180.698C121.212 180.239 120.789 179.665 120.441 178.977C120.092 178.289 119.826 177.481 119.642 176.554C119.458 175.618 119.367 174.562 119.367 173.387V170.014C119.367 168.536 119.504 167.261 119.78 166.187C120.064 165.113 120.468 164.223 120.991 163.516C121.524 162.809 122.171 162.286 122.933 161.946C123.694 161.598 124.557 161.423 125.521 161.423C126.292 161.423 126.999 161.538 127.641 161.767C128.293 161.988 128.866 162.318 129.362 162.759C129.867 163.199 130.289 163.764 130.629 164.452C130.977 165.131 131.239 165.934 131.413 166.861C131.597 167.788 131.689 168.839 131.689 170.014ZM130.05 173.58V169.808C130.05 168.899 129.986 168.073 129.858 167.33C129.738 166.586 129.559 165.934 129.321 165.375C129.082 164.815 128.779 164.347 128.412 163.97C128.054 163.594 127.632 163.314 127.145 163.13C126.668 162.938 126.127 162.841 125.521 162.841C124.777 162.841 124.121 162.993 123.552 163.296C122.992 163.589 122.524 164.03 122.148 164.617C121.771 165.196 121.487 165.921 121.294 166.793C121.111 167.665 121.019 168.67 121.019 169.808V173.58C121.019 174.479 121.078 175.301 121.198 176.044C121.317 176.779 121.501 177.43 121.748 177.999C121.996 178.568 122.299 179.05 122.657 179.445C123.024 179.83 123.446 180.124 123.924 180.326C124.41 180.519 124.952 180.615 125.548 180.615C126.31 180.615 126.971 180.464 127.531 180.161C128.091 179.849 128.559 179.394 128.935 178.798C129.311 178.192 129.591 177.453 129.775 176.581C129.959 175.7 130.05 174.7 130.05 173.58Z" fill="white"/>
<path d="M150.849 156.018L87.8777 100.566L93.9868 94.4566L150.849 156.018Z" fill="url(#paint1_linear_921_471)"/>
<path opacity="0.4" d="M85.8157 191.124H86.4986L89.4614 198.184L92.4297 191.124H93.107L89.7202 199.142H89.2025L85.8157 191.124ZM85.6064 191.124H86.2067L86.2783 195.639V199.142H85.6064V191.124ZM92.727 191.124H93.3273V199.142H92.6499V195.639L92.727 191.124ZM95.1997 190.683H95.8605V197.985L95.8165 199.142H95.1997V190.683ZM100.007 196.107V196.223C100.007 196.667 99.9559 197.075 99.8531 197.446C99.7503 197.816 99.6017 198.138 99.4071 198.409C99.2125 198.677 98.9739 198.885 98.6912 199.032C98.4121 199.179 98.0909 199.252 97.7274 199.252C97.3713 199.252 97.0556 199.197 96.7802 199.087C96.5049 198.973 96.2699 198.813 96.0753 198.608C95.8807 198.398 95.7247 198.154 95.6072 197.875C95.4897 197.593 95.4071 197.282 95.3594 196.945V195.474C95.4145 195.114 95.5026 194.788 95.6237 194.494C95.7449 194.2 95.9009 193.947 96.0918 193.734C96.2864 193.521 96.5177 193.358 96.7857 193.244C97.0574 193.13 97.3676 193.073 97.7164 193.073C98.0799 193.073 98.403 193.145 98.6857 193.288C98.972 193.427 99.2125 193.631 99.4071 193.899C99.6017 194.163 99.7503 194.483 99.8531 194.857C99.9559 195.228 100.007 195.645 100.007 196.107ZM99.341 196.223V196.107C99.341 195.759 99.3079 195.436 99.2419 195.138C99.1758 194.841 99.0711 194.582 98.928 194.362C98.7884 194.138 98.6086 193.963 98.3883 193.839C98.168 193.714 97.9037 193.651 97.5953 193.651C97.2795 193.651 97.0097 193.705 96.7857 193.811C96.5654 193.914 96.3819 194.052 96.235 194.224C96.0918 194.393 95.978 194.578 95.8936 194.78C95.8091 194.982 95.7467 195.18 95.7063 195.375V197.088C95.7688 197.363 95.8771 197.622 96.0313 197.864C96.1855 198.107 96.3929 198.303 96.6536 198.453C96.9142 198.6 97.2318 198.674 97.6063 198.674C97.9073 198.674 98.1662 198.611 98.3828 198.487C98.603 198.362 98.7829 198.189 98.9225 197.969C99.0656 197.749 99.1703 197.49 99.2364 197.192C99.3061 196.895 99.341 196.572 99.341 196.223ZM102.117 194.329V201.433H101.456V193.183H102.072L102.117 194.329ZM106.258 196.107V196.223C106.258 196.667 106.206 197.075 106.104 197.446C106.001 197.816 105.852 198.138 105.658 198.409C105.467 198.677 105.23 198.885 104.947 199.032C104.664 199.179 104.343 199.252 103.983 199.252C103.627 199.252 103.31 199.197 103.031 199.087C102.752 198.977 102.511 198.821 102.309 198.619C102.111 198.413 101.951 198.174 101.83 197.903C101.713 197.627 101.63 197.326 101.582 197V195.474C101.637 195.114 101.727 194.788 101.852 194.494C101.977 194.2 102.137 193.947 102.331 193.734C102.53 193.521 102.765 193.358 103.036 193.244C103.308 193.13 103.618 193.073 103.967 193.073C104.33 193.073 104.653 193.145 104.936 193.288C105.222 193.427 105.463 193.631 105.658 193.899C105.856 194.163 106.004 194.483 106.104 194.857C106.206 195.228 106.258 195.645 106.258 196.107ZM105.597 196.223V196.107C105.597 195.759 105.56 195.436 105.487 195.138C105.417 194.841 105.309 194.582 105.162 194.362C105.019 194.138 104.835 193.963 104.611 193.839C104.391 193.714 104.128 193.651 103.824 193.651C103.508 193.651 103.238 193.705 103.014 193.811C102.794 193.914 102.61 194.052 102.463 194.224C102.317 194.393 102.201 194.578 102.117 194.78C102.032 194.982 101.97 195.18 101.929 195.375V197.132C101.999 197.411 102.111 197.67 102.265 197.908C102.419 198.143 102.625 198.332 102.882 198.475C103.143 198.615 103.46 198.685 103.835 198.685C104.136 198.685 104.396 198.622 104.617 198.498C104.837 198.373 105.019 198.198 105.162 197.974C105.309 197.75 105.417 197.49 105.487 197.192C105.56 196.895 105.597 196.572 105.597 196.223ZM111.291 197.622C111.291 197.46 111.251 197.301 111.17 197.143C111.089 196.985 110.933 196.84 110.702 196.708C110.474 196.576 110.138 196.464 109.694 196.372C109.364 196.298 109.068 196.216 108.808 196.124C108.551 196.032 108.334 195.922 108.158 195.794C107.982 195.665 107.848 195.511 107.756 195.331C107.664 195.151 107.618 194.938 107.618 194.692C107.618 194.472 107.666 194.264 107.761 194.07C107.86 193.872 108 193.699 108.18 193.552C108.363 193.402 108.584 193.284 108.841 193.2C109.101 193.115 109.393 193.073 109.716 193.073C110.175 193.073 110.568 193.152 110.895 193.31C111.225 193.464 111.477 193.675 111.649 193.943C111.825 194.211 111.914 194.514 111.914 194.852H111.258C111.258 194.646 111.198 194.452 111.076 194.268C110.959 194.085 110.785 193.934 110.553 193.817C110.326 193.699 110.047 193.64 109.716 193.64C109.375 193.64 109.098 193.692 108.885 193.795C108.672 193.897 108.516 194.028 108.417 194.186C108.321 194.343 108.273 194.507 108.273 194.676C108.273 194.808 108.294 194.929 108.334 195.039C108.378 195.146 108.455 195.245 108.565 195.336C108.679 195.428 108.841 195.515 109.05 195.595C109.259 195.676 109.531 195.755 109.865 195.832C110.346 195.939 110.739 196.069 111.043 196.223C111.352 196.374 111.579 196.561 111.726 196.785C111.873 197.005 111.947 197.273 111.947 197.589C111.947 197.835 111.895 198.061 111.792 198.266C111.69 198.468 111.541 198.643 111.346 198.789C111.155 198.936 110.924 199.05 110.652 199.131C110.384 199.212 110.083 199.252 109.749 199.252C109.246 199.252 108.82 199.169 108.472 199.004C108.127 198.835 107.864 198.615 107.684 198.343C107.508 198.068 107.42 197.776 107.42 197.468H108.075C108.097 197.776 108.194 198.02 108.367 198.2C108.54 198.376 108.751 198.501 109 198.575C109.254 198.648 109.503 198.685 109.749 198.685C110.087 198.685 110.37 198.635 110.597 198.536C110.825 198.437 110.998 198.307 111.115 198.145C111.233 197.984 111.291 197.809 111.291 197.622Z" fill="white"/>
<path d="M50.6948 148.606V150.181C50.6948 150.866 50.6306 151.463 50.5021 151.973C50.3736 152.479 50.1851 152.898 49.9367 153.232C49.6925 153.562 49.3927 153.809 49.0372 153.971C48.686 154.134 48.2834 154.215 47.8293 154.215C47.4695 154.215 47.1397 154.164 46.8399 154.061C46.5401 153.958 46.2724 153.802 46.0368 153.592C45.8055 153.378 45.6085 153.11 45.4457 152.789C45.2829 152.468 45.1587 152.091 45.0731 151.658C44.9874 151.221 44.9446 150.729 44.9446 150.181V148.606C44.9446 147.917 45.0088 147.322 45.1373 146.82C45.2701 146.319 45.4586 145.904 45.7027 145.574C45.9511 145.244 46.2531 145 46.6086 144.842C46.9641 144.679 47.3667 144.597 47.8165 144.597C48.1763 144.597 48.5061 144.651 48.8059 144.758C49.11 144.861 49.3777 145.015 49.609 145.221C49.8446 145.426 50.0416 145.69 50.2001 146.011C50.3629 146.328 50.4849 146.703 50.5663 147.135C50.652 147.568 50.6948 148.058 50.6948 148.606ZM49.9303 150.271V148.51C49.9303 148.086 49.9003 147.701 49.8403 147.354C49.7846 147.007 49.7011 146.703 49.5898 146.441C49.4784 146.18 49.337 145.962 49.1657 145.786C48.9987 145.61 48.8016 145.48 48.5746 145.394C48.3519 145.304 48.0992 145.259 47.8165 145.259C47.4695 145.259 47.1633 145.33 46.8977 145.471C46.6365 145.608 46.418 145.814 46.2424 146.088C46.0668 146.358 45.934 146.696 45.8441 147.103C45.7584 147.51 45.7156 147.979 45.7156 148.51V150.271C45.7156 150.69 45.7434 151.074 45.7991 151.421C45.8548 151.763 45.9404 152.067 46.0561 152.333C46.1717 152.598 46.3131 152.823 46.4801 153.008C46.6514 153.187 46.8485 153.324 47.0712 153.419C47.2982 153.509 47.5509 153.554 47.8293 153.554C48.1848 153.554 48.4932 153.483 48.7545 153.342C49.0158 153.196 49.2342 152.984 49.4099 152.706C49.5855 152.423 49.7161 152.078 49.8018 151.671C49.8874 151.26 49.9303 150.793 49.9303 150.271Z" fill="white"/>
<path d="M27.9552 106.541V115.934H27.1906V107.511L24.6464 108.456V107.73L27.8267 106.541H27.9552ZM37.3162 110.454V112.028C37.3162 112.713 37.252 113.311 37.1235 113.82C36.995 114.326 36.8065 114.746 36.5581 115.08C36.314 115.41 36.0141 115.656 35.6586 115.819C35.3074 115.981 34.9048 116.063 34.4507 116.063C34.091 116.063 33.7611 116.011 33.4613 115.909C33.1615 115.806 32.8938 115.649 32.6582 115.439C32.4269 115.225 32.2299 114.958 32.0671 114.636C31.9044 114.315 31.7801 113.938 31.6945 113.506C31.6088 113.069 31.566 112.576 31.566 112.028V110.454C31.566 109.764 31.6302 109.169 31.7587 108.668C31.8915 108.167 32.08 107.751 32.3241 107.421C32.5725 107.091 32.8745 106.847 33.23 106.689C33.5855 106.526 33.9882 106.445 34.4379 106.445C34.7977 106.445 35.1275 106.498 35.4273 106.605C35.7314 106.708 35.9991 106.862 36.2304 107.068C36.466 107.273 36.663 107.537 36.8215 107.858C36.9843 108.175 37.1064 108.55 37.1877 108.982C37.2734 109.415 37.3162 109.906 37.3162 110.454ZM36.5517 112.118V110.357C36.5517 109.933 36.5217 109.548 36.4617 109.201C36.406 108.854 36.3225 108.55 36.2112 108.289C36.0998 108.027 35.9584 107.809 35.7871 107.633C35.6201 107.458 35.423 107.327 35.196 107.241C34.9733 107.151 34.7206 107.106 34.4379 107.106C34.091 107.106 33.7847 107.177 33.5191 107.318C33.2579 107.456 33.0394 107.661 32.8638 107.935C32.6882 108.205 32.5554 108.543 32.4655 108.95C32.3798 109.357 32.337 109.826 32.337 110.357V112.118C32.337 112.538 32.3648 112.921 32.4205 113.268C32.4762 113.611 32.5618 113.915 32.6775 114.18C32.7931 114.446 32.9345 114.671 33.1015 114.855C33.2729 115.035 33.4699 115.172 33.6926 115.266C33.9196 115.356 34.1723 115.401 34.4507 115.401C34.8063 115.401 35.1146 115.33 35.3759 115.189C35.6372 115.043 35.8556 114.831 36.0313 114.553C36.2069 114.27 36.3375 113.925 36.4232 113.518C36.5088 113.107 36.5517 112.64 36.5517 112.118Z" fill="white"/>
<path d="M155.143 106.58V107.023L151.146 115.934H150.35L154.32 107.241H148.994V106.58H155.143ZM157.809 111.308L157.205 111.135L157.661 106.58H162.338V107.299H158.316L157.989 110.447C158.152 110.332 158.387 110.218 158.696 110.107C159.008 109.991 159.359 109.933 159.749 109.933C160.165 109.933 160.542 110.004 160.88 110.145C161.223 110.282 161.516 110.484 161.76 110.749C162.004 111.011 162.193 111.328 162.326 111.7C162.458 112.069 162.525 112.486 162.525 112.953C162.525 113.403 162.469 113.816 162.358 114.193C162.246 114.57 162.077 114.9 161.85 115.182C161.623 115.461 161.334 115.677 160.983 115.831C160.632 115.986 160.214 116.063 159.73 116.063C159.357 116.063 159.006 116.011 158.676 115.909C158.351 115.801 158.059 115.641 157.802 115.427C157.545 115.212 157.336 114.943 157.173 114.617C157.014 114.292 156.916 113.91 156.877 113.473H157.616C157.668 113.893 157.781 114.247 157.957 114.534C158.132 114.821 158.368 115.037 158.663 115.182C158.963 115.328 159.319 115.401 159.73 115.401C160.064 115.401 160.355 115.347 160.604 115.24C160.856 115.133 161.066 114.977 161.233 114.771C161.405 114.561 161.533 114.307 161.619 114.007C161.709 113.703 161.754 113.356 161.754 112.966C161.754 112.632 161.707 112.326 161.612 112.047C161.518 111.764 161.379 111.518 161.195 111.308C161.015 111.094 160.792 110.929 160.527 110.814C160.261 110.698 159.957 110.64 159.614 110.64C159.169 110.64 158.813 110.7 158.548 110.82C158.286 110.94 158.04 111.103 157.809 111.308ZM169.618 110.454V112.028C169.618 112.713 169.554 113.311 169.425 113.82C169.297 114.326 169.108 114.746 168.86 115.08C168.616 115.41 168.316 115.656 167.96 115.819C167.609 115.981 167.206 116.063 166.752 116.063C166.393 116.063 166.063 116.011 165.763 115.909C165.463 115.806 165.195 115.649 164.96 115.439C164.728 115.225 164.531 114.958 164.369 114.636C164.206 114.315 164.082 113.938 163.996 113.506C163.91 113.069 163.868 112.576 163.868 112.028V110.454C163.868 109.764 163.932 109.169 164.06 108.668C164.193 108.167 164.382 107.751 164.626 107.421C164.874 107.091 165.176 106.847 165.532 106.689C165.887 106.526 166.29 106.445 166.739 106.445C167.099 106.445 167.429 106.498 167.729 106.605C168.033 106.708 168.301 106.862 168.532 107.068C168.768 107.273 168.965 107.537 169.123 107.858C169.286 108.175 169.408 108.55 169.489 108.982C169.575 109.415 169.618 109.906 169.618 110.454ZM168.853 112.118V110.357C168.853 109.933 168.823 109.548 168.763 109.201C168.708 108.854 168.624 108.55 168.513 108.289C168.401 108.027 168.26 107.809 168.089 107.633C167.922 107.458 167.725 107.327 167.498 107.241C167.275 107.151 167.022 107.106 166.739 107.106C166.393 107.106 166.086 107.177 165.821 107.318C165.559 107.456 165.341 107.661 165.165 107.935C164.99 108.205 164.857 108.543 164.767 108.95C164.681 109.357 164.639 109.826 164.639 110.357V112.118C164.639 112.538 164.666 112.921 164.722 113.268C164.778 113.611 164.863 113.915 164.979 114.18C165.095 114.446 165.236 114.671 165.403 114.855C165.574 115.035 165.771 115.172 165.994 115.266C166.221 115.356 166.474 115.401 166.752 115.401C167.108 115.401 167.416 115.33 167.678 115.189C167.939 115.043 168.157 114.831 168.333 114.553C168.508 114.27 168.639 113.925 168.725 113.518C168.81 113.107 168.853 112.64 168.853 112.118Z" fill="white"/>
<path d="M30.2068 74.4274L29.6028 74.2539L30.059 69.6987H34.7363V70.4183H30.7144L30.3867 73.5664C30.5494 73.4508 30.785 73.3373 31.0934 73.2259C31.4061 73.1103 31.7573 73.0525 32.1471 73.0525C32.5626 73.0525 32.9395 73.1231 33.2779 73.2645C33.6205 73.4015 33.9139 73.6029 34.1581 73.8684C34.4022 74.1297 34.5907 74.4467 34.7235 74.8193C34.8563 75.1877 34.9226 75.6053 34.9226 76.0721C34.9226 76.5219 34.867 76.9352 34.7556 77.3121C34.6442 77.6891 34.475 78.0189 34.248 78.3016C34.021 78.58 33.7319 78.7963 33.3807 78.9505C33.0294 79.1047 32.6118 79.1818 32.1278 79.1818C31.7552 79.1818 31.404 79.1304 31.0741 79.0276C30.7486 78.9205 30.4574 78.7599 30.2004 78.5457C29.9434 78.3316 29.7335 78.0617 29.5707 77.7362C29.4122 77.4107 29.3137 77.0294 29.2752 76.5926H30.014C30.0654 77.0123 30.1789 77.3657 30.3546 77.6527C30.5302 77.9396 30.7657 78.1559 31.0613 78.3016C31.3611 78.4472 31.7166 78.52 32.1278 78.52C32.4619 78.52 32.7532 78.4665 33.0016 78.3594C33.2543 78.2523 33.4642 78.096 33.6312 77.8904C33.8026 77.6805 33.9311 77.4256 34.0167 77.1258C34.1067 76.8217 34.1517 76.4748 34.1517 76.085C34.1517 75.7509 34.1045 75.4446 34.0103 75.1662C33.9161 74.8835 33.7769 74.6373 33.5927 74.4274C33.4128 74.2132 33.1901 74.0483 32.9245 73.9327C32.6589 73.817 32.3548 73.7592 32.0122 73.7592C31.5667 73.7592 31.2112 73.8192 30.9456 73.9391C30.6844 74.059 30.4381 74.2218 30.2068 74.4274ZM42.0157 73.5729V75.147C42.0157 75.8323 41.9515 76.4298 41.823 76.9395C41.6945 77.4449 41.506 77.8647 41.2576 78.1988C41.0134 78.5286 40.7136 78.7749 40.3581 78.9376C40.0069 79.1004 39.6042 79.1818 39.1502 79.1818C38.7904 79.1818 38.4606 79.1304 38.1608 79.0276C37.8609 78.9248 37.5932 78.7684 37.3577 78.5586C37.1264 78.3444 36.9293 78.0767 36.7666 77.7555C36.6038 77.4342 36.4796 77.0573 36.3939 76.6247C36.3083 76.1878 36.2654 75.6952 36.2654 75.147V73.5729C36.2654 72.8833 36.3297 72.2879 36.4582 71.7868C36.591 71.2856 36.7794 70.8701 37.0236 70.5403C37.272 70.2105 37.574 69.9664 37.9295 69.8079C38.285 69.6451 38.6876 69.5637 39.1374 69.5637C39.4971 69.5637 39.827 69.6173 40.1268 69.7244C40.4309 69.8272 40.6986 69.9814 40.9299 70.187C41.1655 70.3926 41.3625 70.656 41.521 70.9772C41.6837 71.2942 41.8058 71.669 41.8872 72.1016C41.9729 72.5342 42.0157 73.0246 42.0157 73.5729ZM41.2511 75.2369V73.4765C41.2511 73.0525 41.2212 72.667 41.1612 72.32C41.1055 71.9731 41.022 71.669 40.9106 71.4077C40.7993 71.1464 40.6579 70.928 40.4866 70.7523C40.3195 70.5767 40.1225 70.4461 39.8955 70.3604C39.6728 70.2705 39.4201 70.2255 39.1374 70.2255C38.7904 70.2255 38.4842 70.2962 38.2186 70.4375C37.9573 70.5746 37.7389 70.7802 37.5633 71.0543C37.3877 71.3242 37.2549 71.6625 37.1649 72.0694C37.0793 72.4764 37.0364 72.9454 37.0364 73.4765V75.2369C37.0364 75.6567 37.0643 76.04 37.1199 76.387C37.1756 76.7296 37.2613 77.0337 37.3769 77.2993C37.4926 77.5649 37.6339 77.7897 37.801 77.9739C37.9723 78.1538 38.1693 78.2909 38.3921 78.3851C38.6191 78.475 38.8718 78.52 39.1502 78.52C39.5057 78.52 39.8141 78.4493 40.0754 78.308C40.3367 78.1624 40.5551 77.9503 40.7307 77.6719C40.9063 77.3892 41.037 77.0444 41.1226 76.6375C41.2083 76.2263 41.2511 75.7595 41.2511 75.2369Z" fill="white"/>
<path d="M151.45 74.4274L150.846 74.2539L151.302 69.6987H155.979V70.4183H151.957L151.63 73.5664C151.792 73.4508 152.028 73.3373 152.336 73.2259C152.649 73.1103 153 73.0525 153.39 73.0525C153.805 73.0525 154.182 73.1231 154.521 73.2645C154.863 73.4015 155.157 73.6029 155.401 73.8684C155.645 74.1297 155.834 74.4467 155.966 74.8193C156.099 75.1877 156.166 75.6053 156.166 76.0721C156.166 76.5219 156.11 76.9352 155.999 77.3121C155.887 77.6891 155.718 78.0189 155.491 78.3016C155.264 78.58 154.975 78.7963 154.624 78.9505C154.272 79.1047 153.855 79.1818 153.371 79.1818C152.998 79.1818 152.647 79.1304 152.317 79.0276C151.992 78.9205 151.7 78.7599 151.443 78.5457C151.186 78.3316 150.976 78.0617 150.814 77.7362C150.655 77.4107 150.557 77.0294 150.518 76.5926H151.257C151.308 77.0123 151.422 77.3657 151.597 77.6527C151.773 77.9396 152.009 78.1559 152.304 78.3016C152.604 78.4472 152.96 78.52 153.371 78.52C153.705 78.52 153.996 78.4665 154.245 78.3594C154.497 78.2523 154.707 78.096 154.874 77.8904C155.045 77.6805 155.174 77.4256 155.26 77.1258C155.35 76.8217 155.395 76.4748 155.395 76.085C155.395 75.7509 155.347 75.4446 155.253 75.1662C155.159 74.8835 155.02 74.6373 154.836 74.4274C154.656 74.2132 154.433 74.0483 154.167 73.9327C153.902 73.817 153.598 73.7592 153.255 73.7592C152.81 73.7592 152.454 73.8192 152.189 73.9391C151.927 74.059 151.681 74.2218 151.45 74.4274ZM163.259 73.5729V75.147C163.259 75.8323 163.194 76.4298 163.066 76.9395C162.937 77.4449 162.749 77.8647 162.5 78.1988C162.256 78.5286 161.957 78.7749 161.601 78.9376C161.25 79.1004 160.847 79.1818 160.393 79.1818C160.033 79.1818 159.704 79.1304 159.404 79.0276C159.104 78.9248 158.836 78.7684 158.601 78.5586C158.369 78.3444 158.172 78.0767 158.009 77.7555C157.847 77.4342 157.723 77.0573 157.637 76.6247C157.551 76.1878 157.508 75.6952 157.508 75.147V73.5729C157.508 72.8833 157.573 72.2879 157.701 71.7868C157.834 71.2856 158.022 70.8701 158.266 70.5403C158.515 70.2105 158.817 69.9664 159.172 69.8079C159.528 69.6451 159.931 69.5637 160.38 69.5637C160.74 69.5637 161.07 69.6173 161.37 69.7244C161.674 69.8272 161.942 69.9814 162.173 70.187C162.408 70.3926 162.605 70.656 162.764 70.9772C162.927 71.2942 163.049 71.669 163.13 72.1016C163.216 72.5342 163.259 73.0246 163.259 73.5729ZM162.494 75.2369V73.4765C162.494 73.0525 162.464 72.667 162.404 72.32C162.348 71.9731 162.265 71.669 162.154 71.4077C162.042 71.1464 161.901 70.928 161.73 70.7523C161.562 70.5767 161.365 70.4461 161.138 70.3604C160.916 70.2705 160.663 70.2255 160.38 70.2255C160.033 70.2255 159.727 70.2962 159.462 70.4375C159.2 70.5746 158.982 70.7802 158.806 71.0543C158.631 71.3242 158.498 71.6625 158.408 72.0694C158.322 72.4764 158.279 72.9454 158.279 73.4765V75.2369C158.279 75.6567 158.307 76.04 158.363 76.387C158.419 76.7296 158.504 77.0337 158.62 77.2993C158.736 77.5649 158.877 77.7897 159.044 77.9739C159.215 78.1538 159.412 78.2909 159.635 78.3851C159.862 78.475 160.115 78.52 160.393 78.52C160.749 78.52 161.057 78.4493 161.318 78.308C161.58 78.1624 161.798 77.9503 161.974 77.6719C162.149 77.3892 162.28 77.0444 162.366 76.6375C162.451 76.2263 162.494 75.7595 162.494 75.2369ZM170.557 73.5729V75.147C170.557 75.8323 170.493 76.4298 170.365 76.9395C170.236 77.4449 170.048 77.8647 169.799 78.1988C169.555 78.5286 169.255 78.7749 168.9 78.9376C168.548 79.1004 168.146 79.1818 167.692 79.1818C167.332 79.1818 167.002 79.1304 166.702 79.0276C166.403 78.9248 166.135 78.7684 165.899 78.5586C165.668 78.3444 165.471 78.0767 165.308 77.7555C165.145 77.4342 165.021 77.0573 164.936 76.6247C164.85 76.1878 164.807 75.6952 164.807 75.147V73.5729C164.807 72.8833 164.871 72.2879 165 71.7868C165.133 71.2856 165.321 70.8701 165.565 70.5403C165.814 70.2105 166.116 69.9664 166.471 69.8079C166.827 69.6451 167.229 69.5637 167.679 69.5637C168.039 69.5637 168.369 69.6173 168.668 69.7244C168.972 69.8272 169.24 69.9814 169.471 70.187C169.707 70.3926 169.904 70.656 170.063 70.9772C170.225 71.2942 170.347 71.669 170.429 72.1016C170.514 72.5342 170.557 73.0246 170.557 73.5729ZM169.793 75.2369V73.4765C169.793 73.0525 169.763 72.667 169.703 72.32C169.647 71.9731 169.564 71.669 169.452 71.4077C169.341 71.1464 169.199 70.928 169.028 70.7523C168.861 70.5767 168.664 70.4461 168.437 70.3604C168.214 70.2705 167.962 70.2255 167.679 70.2255C167.332 70.2255 167.026 70.2962 166.76 70.4375C166.499 70.5746 166.28 70.7802 166.105 71.0543C165.929 71.3242 165.796 71.6625 165.706 72.0694C165.621 72.4764 165.578 72.9454 165.578 73.4765V75.2369C165.578 75.6567 165.606 76.04 165.662 76.387C165.717 76.7296 165.803 77.0337 165.919 77.2993C166.034 77.5649 166.176 77.7897 166.343 77.9739C166.514 78.1538 166.711 78.2909 166.934 78.3851C167.161 78.475 167.413 78.52 167.692 78.52C168.047 78.52 168.356 78.4493 168.617 78.308C168.878 78.1624 169.097 77.9503 169.272 77.6719C169.448 77.3892 169.579 77.0444 169.664 76.6375C169.75 76.2263 169.793 75.7595 169.793 75.2369Z" fill="white"/>
<path d="M60.2089 40.9641C60.2089 41.5295 60.0761 42.0071 59.8106 42.3968C59.5493 42.7866 59.1938 43.08 58.744 43.277C58.2943 43.4741 57.791 43.5726 57.2342 43.5726C56.6731 43.5726 56.1677 43.4741 55.7179 43.277C55.2682 43.08 54.9105 42.7866 54.645 42.3968C54.3837 42.0071 54.2531 41.5295 54.2531 40.9641C54.2531 40.5914 54.3259 40.2531 54.4715 39.949C54.6214 39.6406 54.8292 39.375 55.0947 39.1523C55.3646 38.9253 55.6794 38.7497 56.0392 38.6254C56.399 38.5012 56.793 38.4391 57.2213 38.4391C57.7867 38.4391 58.2943 38.5483 58.744 38.7668C59.1938 38.9809 59.5493 39.2765 59.8106 39.6534C60.0761 40.0303 60.2089 40.4672 60.2089 40.9641ZM59.4379 40.9641C59.4379 40.5657 59.3416 40.2167 59.1488 39.9168C58.9561 39.617 58.6926 39.3857 58.3586 39.223C58.0245 39.0559 57.6454 38.9724 57.2213 38.9724C56.793 38.9724 56.414 39.0559 56.0841 39.223C55.7543 39.3857 55.4952 39.617 55.3067 39.9168C55.1183 40.2167 55.024 40.5657 55.024 40.9641C55.024 41.3796 55.1161 41.7329 55.3003 42.0242C55.4888 42.3155 55.7501 42.536 56.0841 42.686C56.4182 42.8359 56.8016 42.9108 57.2342 42.9108C57.6668 42.9108 58.048 42.8359 58.3778 42.686C58.7076 42.536 58.9668 42.3155 59.1552 42.0242C59.3437 41.7329 59.4379 41.3796 59.4379 40.9641ZM59.9648 36.4924C59.9648 36.9507 59.8427 37.3597 59.5986 37.7195C59.3587 38.075 59.0332 38.3556 58.622 38.5612C58.2108 38.7625 57.746 38.8632 57.2278 38.8632C56.7052 38.8632 56.2362 38.7625 55.8207 38.5612C55.4095 38.3556 55.084 38.075 54.8441 37.7195C54.6086 37.3597 54.4908 36.9507 54.4908 36.4924C54.4908 35.9484 54.6086 35.4901 54.8441 35.1175C55.084 34.7405 55.4095 34.4536 55.8207 34.2565C56.2319 34.0595 56.6988 33.961 57.2213 33.961C57.7396 33.961 58.2044 34.0595 58.6155 34.2565C59.031 34.4536 59.3587 34.7405 59.5986 35.1175C59.8427 35.4901 59.9648 35.9484 59.9648 36.4924ZM59.2002 36.486C59.2002 36.1219 59.1124 35.8006 58.9368 35.5222C58.7655 35.2438 58.5299 35.0254 58.2301 34.8669C57.9345 34.7041 57.5983 34.6227 57.2213 34.6227C56.8401 34.6227 56.5018 34.6977 56.2062 34.8476C55.915 34.9975 55.6837 35.2117 55.5123 35.4901C55.3453 35.7685 55.2618 36.1005 55.2618 36.486C55.2618 36.8629 55.3453 37.1884 55.5123 37.4625C55.6837 37.7324 55.9171 37.9423 56.2126 38.0922C56.5082 38.2421 56.8466 38.317 57.2278 38.317C57.609 38.317 57.9474 38.2421 58.2429 38.0922C58.5384 37.9423 58.7719 37.7324 58.9432 37.4625C59.1145 37.1884 59.2002 36.8629 59.2002 36.486ZM67.3919 37.9637V39.5378C67.3919 40.2231 67.3277 40.8206 67.1992 41.3303C67.0707 41.8357 66.8822 42.2555 66.6338 42.5896C66.3896 42.9194 66.0898 43.1657 65.7343 43.3284C65.3831 43.4912 64.9805 43.5726 64.5264 43.5726C64.1666 43.5726 63.8368 43.5212 63.537 43.4184C63.2372 43.3156 62.9695 43.1593 62.7339 42.9494C62.5026 42.7352 62.3056 42.4675 62.1428 42.1463C61.98 41.825 61.8558 41.4481 61.7702 41.0155C61.6845 40.5786 61.6417 40.086 61.6417 39.5378V37.9637C61.6417 37.2741 61.7059 36.6787 61.8344 36.1776C61.9672 35.6764 62.1556 35.2609 62.3998 34.9311C62.6482 34.6013 62.9502 34.3572 63.3057 34.1987C63.6612 34.0359 64.0638 33.9546 64.5136 33.9546C64.8734 33.9546 65.2032 34.0081 65.503 34.1152C65.8071 34.218 66.0748 34.3722 66.3061 34.5778C66.5417 34.7834 66.7387 35.0468 66.8972 35.368C67.06 35.685 67.182 36.0598 67.2634 36.4924C67.3491 36.925 67.3919 37.4154 67.3919 37.9637ZM66.6274 39.6277V37.8673C66.6274 37.4433 66.5974 37.0578 66.5374 36.7108C66.4817 36.3639 66.3982 36.0598 66.2868 35.7985C66.1755 35.5372 66.0341 35.3188 65.8628 35.1432C65.6958 34.9675 65.4987 34.8369 65.2717 34.7512C65.049 34.6613 64.7963 34.6163 64.5136 34.6163C64.1666 34.6163 63.8604 34.687 63.5948 34.8283C63.3335 34.9654 63.1151 35.171 62.9395 35.4451C62.7639 35.715 62.6311 36.0533 62.5411 36.4603C62.4555 36.8672 62.4126 37.3362 62.4126 37.8673V39.6277C62.4126 40.0475 62.4405 40.4308 62.4962 40.7778C62.5519 41.1204 62.6375 41.4245 62.7532 41.6901C62.8688 41.9557 63.0102 42.1805 63.1772 42.3647C63.3485 42.5446 63.5456 42.6817 63.7683 42.7759C63.9953 42.8659 64.248 42.9108 64.5264 42.9108C64.8819 42.9108 65.1903 42.8402 65.4516 42.6988C65.7129 42.5532 65.9313 42.3412 66.1069 42.0627C66.2826 41.7801 66.4132 41.4352 66.4989 41.0283C66.5845 40.6171 66.6274 40.1503 66.6274 39.6277Z" fill="white"/>
<path d="M128.923 42.7823V43.4441H123.069V42.8466L126.134 39.3707C126.515 38.9381 126.819 38.559 127.046 38.2335C127.274 37.9037 127.436 37.6039 127.535 37.334C127.638 37.0599 127.689 36.7943 127.689 36.5374C127.689 36.1604 127.614 35.8285 127.464 35.5415C127.318 35.2545 127.1 35.0297 126.809 34.8669C126.518 34.7041 126.158 34.6227 125.729 34.6227C125.301 34.6227 124.928 34.7148 124.611 34.899C124.295 35.0832 124.05 35.3402 123.879 35.67C123.712 35.9955 123.628 36.366 123.628 36.7815H122.864C122.864 36.2675 122.977 35.7964 123.204 35.368C123.436 34.9397 123.766 34.5992 124.194 34.3465C124.622 34.0895 125.134 33.961 125.729 33.961C126.295 33.961 126.781 34.0616 127.188 34.263C127.595 34.46 127.907 34.7448 128.126 35.1175C128.349 35.4901 128.46 35.9398 128.46 36.4667C128.46 36.7494 128.409 37.0342 128.306 37.3212C128.207 37.6082 128.07 37.8951 127.895 38.1821C127.723 38.4648 127.526 38.7454 127.303 39.0238C127.085 39.3022 126.856 39.5763 126.616 39.8462L124.008 42.7823H128.923ZM131.493 38.8182L130.889 38.6447L131.345 34.0895H136.022V34.8091H132L131.672 37.9573C131.835 37.8416 132.071 37.7281 132.379 37.6167C132.692 37.5011 133.043 37.4433 133.433 37.4433C133.848 37.4433 134.225 37.5139 134.564 37.6553C134.906 37.7923 135.2 37.9937 135.444 38.2592C135.688 38.5205 135.876 38.8375 136.009 39.2101C136.142 39.5785 136.208 39.9961 136.208 40.463C136.208 40.9127 136.153 41.326 136.041 41.703C135.93 42.0799 135.761 42.4097 135.534 42.6924C135.307 42.9708 135.018 43.1871 134.666 43.3413C134.315 43.4955 133.898 43.5726 133.414 43.5726C133.041 43.5726 132.69 43.5212 132.36 43.4184C132.034 43.3113 131.743 43.1507 131.486 42.9365C131.229 42.7224 131.019 42.4525 130.856 42.127C130.698 41.8015 130.599 41.4203 130.561 40.9834H131.3C131.351 41.4031 131.465 41.7565 131.64 42.0435C131.816 42.3304 132.051 42.5468 132.347 42.6924C132.647 42.838 133.002 42.9108 133.414 42.9108C133.748 42.9108 134.039 42.8573 134.287 42.7502C134.54 42.6431 134.75 42.4868 134.917 42.2812C135.088 42.0713 135.217 41.8165 135.302 41.5166C135.392 41.2125 135.437 40.8656 135.437 40.4758C135.437 40.1417 135.39 39.8355 135.296 39.557C135.202 39.2744 135.063 39.0281 134.878 38.8182C134.699 38.604 134.476 38.4391 134.21 38.3235C133.945 38.2078 133.641 38.15 133.298 38.15C132.852 38.15 132.497 38.21 132.231 38.3299C131.97 38.4498 131.724 38.6126 131.493 38.8182ZM143.301 37.9637V39.5378C143.301 40.2231 143.237 40.8206 143.109 41.3303C142.98 41.8357 142.792 42.2555 142.543 42.5896C142.299 42.9194 141.999 43.1657 141.644 43.3284C141.293 43.4912 140.89 43.5726 140.436 43.5726C140.076 43.5726 139.746 43.5212 139.446 43.4184C139.147 43.3156 138.879 43.1593 138.643 42.9494C138.412 42.7352 138.215 42.4675 138.052 42.1463C137.89 41.825 137.765 41.4481 137.68 41.0155C137.594 40.5786 137.551 40.086 137.551 39.5378V37.9637C137.551 37.2741 137.615 36.6787 137.744 36.1776C137.877 35.6764 138.065 35.2609 138.309 34.9311C138.558 34.6013 138.86 34.3572 139.215 34.1987C139.571 34.0359 139.973 33.9546 140.423 33.9546C140.783 33.9546 141.113 34.0081 141.413 34.1152C141.717 34.218 141.984 34.3722 142.216 34.5778C142.451 34.7834 142.648 35.0468 142.807 35.368C142.969 35.685 143.092 36.0598 143.173 36.4924C143.259 36.925 143.301 37.4154 143.301 37.9637ZM142.537 39.6277V37.8673C142.537 37.4433 142.507 37.0578 142.447 36.7108C142.391 36.3639 142.308 36.0598 142.196 35.7985C142.085 35.5372 141.944 35.3188 141.772 35.1432C141.605 34.9675 141.408 34.8369 141.181 34.7512C140.958 34.6613 140.706 34.6163 140.423 34.6163C140.076 34.6163 139.77 34.687 139.504 34.8283C139.243 34.9654 139.025 35.171 138.849 35.4451C138.673 35.715 138.541 36.0533 138.451 36.4603C138.365 36.8672 138.322 37.3362 138.322 37.8673V39.6277C138.322 40.0475 138.35 40.4308 138.406 40.7778C138.461 41.1204 138.547 41.4245 138.663 41.6901C138.778 41.9557 138.92 42.1805 139.087 42.3647C139.258 42.5446 139.455 42.6817 139.678 42.7759C139.905 42.8659 140.158 42.9108 140.436 42.9108C140.791 42.9108 141.1 42.8402 141.361 42.6988C141.622 42.5532 141.841 42.3412 142.016 42.0627C142.192 41.7801 142.323 41.4352 142.408 41.0283C142.494 40.6171 142.537 40.1503 142.537 39.6277Z" fill="white"/>
<path d="M91.8663 25.1486V34.5418H91.1018V26.1188L88.5575 27.0633V26.3372L91.7378 25.1486H91.8663ZM101.227 29.0614V30.6355C101.227 31.3208 101.163 31.9183 101.035 32.428C100.906 32.9334 100.718 33.3532 100.469 33.6873C100.225 34.0171 99.9253 34.2634 99.5698 34.4262C99.2185 34.5889 98.8159 34.6703 98.3619 34.6703C98.0021 34.6703 97.6723 34.6189 97.3724 34.5161C97.0726 34.4133 96.8049 34.257 96.5693 34.0471C96.338 33.8329 96.141 33.5652 95.9782 33.244C95.8155 32.9227 95.6913 32.5458 95.6056 32.1132C95.5199 31.6763 95.4771 31.1837 95.4771 30.6355V29.0614C95.4771 28.3718 95.5414 27.7764 95.6699 27.2753C95.8026 26.7741 95.9911 26.3587 96.2352 26.0289C96.4837 25.699 96.7856 25.4549 97.1412 25.2964C97.4967 25.1337 97.8993 25.0523 98.349 25.0523C98.7088 25.0523 99.0386 25.1058 99.3385 25.2129C99.6426 25.3157 99.9103 25.4699 100.142 25.6755C100.377 25.8811 100.574 26.1445 100.733 26.4657C100.895 26.7827 101.017 27.1575 101.099 27.5901C101.185 28.0227 101.227 28.5131 101.227 29.0614ZM100.463 30.7254V28.965C100.463 28.541 100.433 28.1555 100.373 27.8085C100.317 27.4616 100.234 27.1575 100.122 26.8962C100.011 26.6349 99.8696 26.4165 99.6983 26.2409C99.5312 26.0653 99.3342 25.9346 99.1072 25.849C98.8844 25.759 98.6317 25.714 98.349 25.714C98.0021 25.714 97.6958 25.7847 97.4303 25.9261C97.169 26.0631 96.9505 26.2687 96.7749 26.5428C96.5993 26.8127 96.4665 27.1511 96.3766 27.558C96.2909 27.9649 96.2481 28.4339 96.2481 28.965V30.7254C96.2481 31.1452 96.2759 31.5285 96.3316 31.8755C96.3873 32.2181 96.473 32.5223 96.5886 32.7878C96.7043 33.0534 96.8456 33.2783 97.0127 33.4624C97.184 33.6423 97.381 33.7794 97.6037 33.8736C97.8308 33.9636 98.0835 34.0085 98.3619 34.0085C98.7174 34.0085 99.0258 33.9379 99.2871 33.7965C99.5483 33.6509 99.7668 33.4389 99.9424 33.1605C100.118 32.8778 100.249 32.533 100.334 32.1261C100.42 31.7149 100.463 31.248 100.463 30.7254ZM108.526 29.0614V30.6355C108.526 31.3208 108.462 31.9183 108.333 32.428C108.205 32.9334 108.016 33.3532 107.768 33.6873C107.524 34.0171 107.224 34.2634 106.868 34.4262C106.517 34.5889 106.115 34.6703 105.661 34.6703C105.301 34.6703 104.971 34.6189 104.671 34.5161C104.371 34.4133 104.104 34.257 103.868 34.0471C103.637 33.8329 103.44 33.5652 103.277 33.244C103.114 32.9227 102.99 32.5458 102.904 32.1132C102.819 31.6763 102.776 31.1837 102.776 30.6355V29.0614C102.776 28.3718 102.84 27.7764 102.969 27.2753C103.101 26.7741 103.29 26.3587 103.534 26.0289C103.782 25.699 104.084 25.4549 104.44 25.2964C104.795 25.1337 105.198 25.0523 105.648 25.0523C106.007 25.0523 106.337 25.1058 106.637 25.2129C106.941 25.3157 107.209 25.4699 107.44 25.6755C107.676 25.8811 107.873 26.1445 108.031 26.4657C108.194 26.7827 108.316 27.1575 108.398 27.5901C108.483 28.0227 108.526 28.5131 108.526 29.0614ZM107.761 30.7254V28.965C107.761 28.541 107.731 28.1555 107.672 27.8085C107.616 27.4616 107.532 27.1575 107.421 26.8962C107.31 26.6349 107.168 26.4165 106.997 26.2409C106.83 26.0653 106.633 25.9346 106.406 25.849C106.183 25.759 105.93 25.714 105.648 25.714C105.301 25.714 104.994 25.7847 104.729 25.9261C104.468 26.0631 104.249 26.2687 104.074 26.5428C103.898 26.8127 103.765 27.1511 103.675 27.558C103.59 27.9649 103.547 28.4339 103.547 28.965V30.7254C103.547 31.1452 103.575 31.5285 103.63 31.8755C103.686 32.2181 103.772 32.5223 103.887 32.7878C104.003 33.0534 104.144 33.2783 104.311 33.4624C104.483 33.6423 104.68 33.7794 104.902 33.8736C105.129 33.9636 105.382 34.0085 105.661 34.0085C106.016 34.0085 106.324 33.9379 106.586 33.7965C106.847 33.6509 107.065 33.4389 107.241 33.1605C107.417 32.8778 107.547 32.533 107.633 32.1261C107.719 31.7149 107.761 31.248 107.761 30.7254Z" fill="white"/>
<defs>
<linearGradient id="paint0_linear_921_471" x1="224.158" y1="105.735" x2="12.688" y2="175.755" gradientUnits="userSpaceOnUse">
<stop offset="0.35138" stop-color="#E60000"/>
<stop offset="0.838278" stop-color="#ED5A02"/>
</linearGradient>
<linearGradient id="paint1_linear_921_471" x1="151.319" y1="156.018" x2="93.5169" y2="99.6259" gradientUnits="userSpaceOnUse">
<stop offset="0.245192" stop-color="#D9D9D9"/>
<stop offset="1" stop-color="white" stop-opacity="0.05"/>
</linearGradient>
</defs>
</svg>
