<svg width="26" height="26" viewBox="0 0 26 26" fill="none" xmlns="http://www.w3.org/2000/svg">
<g id="Artboard">
<path id="Vector" fill-rule="evenodd" clip-rule="evenodd" d="M13 0C5.82075 0 0 5.82075 0 13C0 20.1793 5.82075 26 13 26C20.1793 26 26 20.1793 26 13C26 5.82075 20.1793 0 13 0ZM19.0255 8.84108C18.8305 10.8962 17.9833 15.8849 17.5532 18.187C17.3712 19.162 17.0116 19.4881 16.6649 19.5195C15.9098 19.5888 15.3368 19.0201 14.6055 18.5413C13.4615 17.7916 12.8148 17.3247 11.7043 16.5923C10.4206 15.7463 11.2526 15.2815 11.9838 14.5221C12.1756 14.3228 15.5014 11.297 15.5664 11.0229C15.574 10.9883 15.5827 10.8604 15.5058 10.7933C15.4288 10.7261 15.3173 10.7488 15.2371 10.7673C15.1223 10.7933 13.2947 12.0012 9.75325 14.391C9.23433 14.7474 8.76417 14.9208 8.34275 14.9121C7.87908 14.9023 6.98642 14.6499 6.32233 14.4333C5.50875 14.1689 4.86092 14.0281 4.91725 13.5796C4.9465 13.3456 5.26825 13.1062 5.88358 12.8613C9.67308 11.2103 12.2005 10.1216 13.4648 9.59508C17.0755 8.09358 17.8252 7.8325 18.3148 7.82383C18.928 7.81517 19.0753 8.32108 19.0255 8.84108Z" fill="#E60000"/>
</g>
</svg>
